{"title":"The Ninth Passenger 2018 DVDRip AAC 2.0 x264 [MW]","magnet":"magnet:?xt=urn:btih:72d099ae364659e3ee1c59e60e1f7d7491a776dd&dn=The+Ninth+Passenger+2018+DVDRip+AAC+2.0+x264+%5BMW%5D&tr=udp%3A%2F%2Ftracker.leechers-paradise.org%3A6969&tr=udp%3A%2F%2Fzer0day.ch%3A1337&tr=udp%3A%2F%2Fopen.demonii.com%3A1337&tr=udp%3A%2F%2Ftracker.coppersurfer.tk%3A6969&tr=udp%3A%2F%2Fexodus.desync.com%3A6969","uploader":"MFreaky","categoryP":"video","categoryS":"movies_dvdr","size":"770366835","seeders":"23","leechers":"37","description":" <a href=\"https://pichub.site/image/Sa2jd\" rel=\"nofollow\" target=\"_NEW\">https://pichub.site/image/Sa2jd</a> <a href=\"\nhttps://pichub.site/image/Salk9\" rel=\"nofollow\" target=\"_NEW\">\nhttps://pichub.site/image/Salk9</a> <a href=\"\nhttps://pichub.site/image/Sa6xu\" rel=\"nofollow\" target=\"_NEW\">\nhttps://pichub.site/image/Sa6xu</a> <a href=\"\nhttps://pichub.site/image/SaPTR\" rel=\"nofollow\" target=\"_NEW\">\nhttps://pichub.site/image/SaPTR</a> <a href=\"\nhttps://pichub.site/image/SasmB\" rel=\"nofollow\" target=\"_NEW\">\nhttps://pichub.site/image/SasmB</a> <a href=\"\nhttps://pichub.site/image/SanDs\" rel=\"nofollow\" target=\"_NEW\">\nhttps://pichub.site/image/SanDs</a>\r\n\r\nIMDB:- <a href=\"\nhttps://www.imdb.com/title/tt5361326/\" rel=\"nofollow\" target=\"_NEW\">\nhttps://www.imdb.com/title/tt5361326/</a>\r\n\r\nVideo\r\nID : 1\r\nFormat : AVC\r\nFormat/Info : Advanced Video Codec\r\nFormat profile : High@L4.1\r\nFormat settings : CABAC / 4 Ref Frames\r\nFormat settings, CABAC : Yes\r\nFormat settings, RefFrames : 4 frames\r\nCodec ID : V_MPEG4/ISO/AVC\r\nDuration : 1 h 16 min\r\nBit rate : 1 200 kb/s\r\nWidth : 720 pixels\r\nHeight : 304 pixels\r\nDisplay aspect ratio : 2.35:1\r\nFrame rate mode : Constant\r\nFrame rate : 23.976 (24000/1001) FPS\r\nColor space : YUV\r\nChroma subsampling : 4:2:0\r\nBit depth : 8 bits\r\nScan type : Progressive\r\nBits/(Pixel*Frame) : 0.229\r\nStream size : 646 MiB (88%)\r\nWriting library : x264 core 155 r2901 7d0ff22\r\nDefault : Yes\r\nForced : No\r\n\r\nAudio\r\nID : 2\r\nFormat : AAC\r\nFormat/Info : Advanced Audio Codec\r\nFormat profile : LC\r\nCodec ID : A_AAC-2\r\nDuration : 1 h 16 min\r\nBit rate : 161 kb/s\r\nChannel(s) : 2 channels\r\nChannel positions : Front: L R\r\nSampling rate : 48.0 kHz\r\nFrame rate : 46.875 FPS (1024 SPF)\r\nCompression mode : Lossy\r\nStream size : 87.3 MiB (12%)\r\nLanguage : English\r\nDefault : Yes\r\nForced : No","last_updated":"2018-08-19T12:05:54.887Z","parsed":{"xt":"urn:btih:72d099ae364659e3ee1c59e60e1f7d7491a776dd","dn":"The Ninth Passenger 2018 DVDRip AAC 2.0 x264 [MW]","tr":["udp://exodus.desync.com:6969","udp://open.demonii.com:1337","udp://tracker.coppersurfer.tk:6969","udp://tracker.leechers-paradise.org:6969","udp://zer0day.ch:1337"],"infoHash":"72d099ae364659e3ee1c59e60e1f7d7491a776dd","infoHashBuffer":{"type":"Buffer","data":[114,208,153,174,54,70,89,227,238,28,89,230,14,31,125,116,145,167,118,221]},"name":"The Ninth Passenger 2018 DVDRip AAC 2.0 x264 [MW]","announce":["udp://exodus.desync.com:6969","udp://open.demonii.com:1337","udp://tracker.coppersurfer.tk:6969","udp://tracker.leechers-paradise.org:6969","udp://zer0day.ch:1337"],"urlList":[]}}